<svg width="30" height="30" viewBox="0 0 30 30" fill="none" xmlns="http://www.w3.org/2000/svg">
    <path
        d="M15 0C12.0333 0 9.13319 0.879735 6.66645 2.52796C4.19972 4.17618 2.27713 6.51886 1.14181 9.25975C0.00649929 12.0006 -0.290551 15.0166 0.288228 17.9264C0.867006 20.8361 2.29562 23.5088 4.3934 25.6066C6.49119 27.7044 9.16394 29.133 12.0737 29.7118C14.9834 30.2906 17.9994 29.9935 20.7403 28.8582C23.4811 27.7229 25.8238 25.8003 27.472 23.3336C29.1203 20.8668 30 17.9667 30 15C29.9957 11.0231 28.414 7.21026 25.6019 4.39815C22.7897 1.58604 18.9769 0.00430135 15 0ZM15 26.25C12.775 26.25 10.5999 25.5902 8.74984 24.354C6.89979 23.1179 5.45785 21.3609 4.60636 19.3052C3.75488 17.2495 3.53209 14.9875 3.96617 12.8052C4.40026 10.6229 5.47171 8.61839 7.04505 7.04505C8.6184 5.47171 10.623 4.40025 12.8052 3.96617C14.9875 3.53208 17.2495 3.75487 19.3052 4.60636C21.3609 5.45784 23.1179 6.89978 24.354 8.74984C25.5902 10.5999 26.25 12.775 26.25 15C26.2467 17.9827 25.0604 20.8422 22.9513 22.9513C20.8422 25.0604 17.9827 26.2467 15 26.25ZM8.41251 12.595L20.625 9.375L17.4375 21.5875C17.3642 21.8494 17.2074 22.0803 16.991 22.2451C16.7746 22.4099 16.5103 22.4996 16.2383 22.5006C15.9663 22.5016 15.7014 22.4138 15.4838 22.2506C15.2662 22.0874 15.1077 21.8577 15.0325 21.5963L13.125 16.875L8.40376 15C8.14235 14.9248 7.91261 14.7663 7.74941 14.5487C7.5862 14.3311 7.49843 14.0662 7.49942 13.7942C7.50041 13.5222 7.5901 13.2579 7.75489 13.0415C7.91967 12.8251 8.15056 12.6683 8.41251 12.595Z"
        fill="#ED3C52" />
</svg>