<svg width="20" height="20" viewBox="0 0 20 20" fill="none" xmlns="http://www.w3.org/2000/svg">
    <path
        d="M0.0506832 11.0055C0.265179 13.1279 1.15273 15.126 2.58367 16.7081C4.0146 18.2901 5.91394 19.3731 8.00418 19.7988C10.0944 20.2246 12.266 19.9707 14.2018 19.0744C16.1375 18.1781 17.7359 16.6863 18.7634 14.8169C19.7909 12.9476 20.1938 10.7986 19.913 8.68397C19.6323 6.56936 18.6827 4.59993 17.203 3.06341C15.7233 1.52688 13.7911 0.503788 11.6886 0.143592C9.58602 -0.216604 7.4234 0.104975 5.51664 1.06135L8.20666 6.42454C8.96936 6.04199 9.83441 5.91336 10.6754 6.05744C11.5164 6.20152 12.2893 6.61075 12.8812 7.22536C13.4731 7.83997 13.8529 8.62774 13.9652 9.47359C14.0775 10.3194 13.9164 11.179 13.5054 11.9268C13.0943 12.6745 12.455 13.2712 11.6807 13.6298C10.9064 13.9883 10.0378 14.0898 9.20167 13.9195C8.36558 13.7492 7.60584 13.316 7.03347 12.6832C6.46109 12.0504 6.10607 11.2512 6.02027 10.4022L0.0506832 11.0055Z"
        fill="#ED3C52" />
</svg>